<svg xmlns="http://www.w3.org/2000/svg" version="1.1" xmlns:xlink="http://www.w3.org/1999/xlink" xmlns:svgjs="http://svgjs.dev/svgjs" viewBox="0 0 1422 800"><defs><linearGradient x1="50%" y1="0%" x2="50%" y2="100%" id="ccchaos-grad"><stop stop-color="hsl(30, 100%, 50%)" stop-opacity="1" offset="0%"></stop><stop stop-color="hsl(30, 100%, 70%)" stop-opacity="1" offset="100%"></stop></linearGradient></defs><g stroke-width="1.5" stroke="url(#ccchaos-grad)" fill="none" stroke-linecap="round"><path d="M691.62 46.17C697.34 48.47 703 51.03 708.57 53.76 714.14 56.45 719.63 59.17 725.04 61.85 735.86 66.42 746.34 70.2 756.5 72.97 766.67 74.1 776.54 74.35 786.13 73.99 795.79 72.81 805.23 71.91 814.51 71.74 823.96 72.16 833.35 74.11 842.73 77.79 852.42 82.87 862.24 89.83 872.25 98.46 882.7 108.26 893.46 119.25 904.54 131.06 916.15 143.13 928.12 155.38 940.43 167.48 953.17 179 966.15 190 979.22 200.4 992.42 209.83 1005.45 218.65 1018.05 226.96 1030.27 234.4 1041.66 241.57 1051.93 248.63 1061.21 255.14 1068.94 261.81 1074.87 268.8 1079.38 275.52 1081.85 282.74 1082.21 290.51 1081.11 298.21 1078.03 306.54 1073.13 315.51 1067.34 324.45 1060.27 334.05 1052.28 344.29 1048.32 349.4 1044.29 354.67 1040.23 360.1 1036.36 365.52 1032.56 371.11 1028.88 376.86 1025.54 382.62 1022.44 388.47 1019.62 394.43 1017.21 400.39 1015.13 406.47 1013.37 412.66 1011.24 425.09 1010.42 438.05 1010.8 451.57 1012.78 465.27 1015.54 479.65 1018.79 494.7 1022.87 509.99 1026.81 525.96 1030.31 542.51 1033.75 559.12 1036.21 576.05 1037.46 592.99 1038.01 609.4 1037.06 625.18 1034.58 639.81 1031.11 652.93 1026.09 664.04 1019.62 672.61 1012.23 678.77 1003.57 681.86 993.81 681.72 983.39 679.38 972.13 674.39 960.23 667.36 947.97 660.17 935.3 652.89 922.36 646.77 909.32 643.76 896.17 644.14 883.02 648.83 869.92 658.62 856.88 673.07 843.97 691.64 831.16 713.22 818.49 736.12 805.97 758.27 793.56 777.76 781.28 792.45 769.14 800.58 757.07 801.76 745.1 795.31 733.25 781.88 727.34 773.35 721.45 763.75 715.58 753.39 709.72 742.84 703.87 732.23 698.05 721.92 692.24 712.47 686.5 704.1 680.86 697.05 675.22 691.64 669.66 687.89 664.18 685.9 653.22 687.55 642.6 695.6 632.32 708.51 622.01 725.12 612.02 742.28 602.38 757.67 592.69 770.19 583.32 777.4 574.27 778.52 565.14 773.9 556.3 763.31 547.76 747.78 539.1 728.7 530.69 707.34 522.53 685.25 514.2 663.66 506.08 643.76 498.17 626.38 490.06 611.99 482.12 600.77 474.39 592.52 466.44 587.29 458.68 584.22 451.14 582.62 443.43 582.64 435.96 582.93 428.8 582.91 421.54 583.07 414.63 582.13 408.14 579.82 401.65 576.94 395.64 572.47 390.17 566.48 384.8 559.8 380.01 551.75 375.87 542.52 371.88 532.81 368.56 522.19 365.94 510.87 363.5 499.32 361.75 487.28 360.72 474.91 360.27 468.7 360 462.43 359.91 456.11 359.85 449.78 359.98 443.41 360.28 436.99 360.61 430.58 361.11 424.21 361.78 417.87 362.47 411.53 363.33 405.23 364.33 398.95 366.38 386.37 369.02 373.85 372.19 361.36 375.33 348.73 378.96 336.01 383.03 323.15 386.97 310.08 391.31 296.79 395.99 283.27 400.47 269.56 405.28 255.63 410.36 241.58 415.22 227.54 420.37 213.58 425.79 199.88 431.02 186.6 436.55 173.95 442.39 162.18 448.11 151.34 454.19 141.73 460.63 133.55 467.04 126.55 473.87 121.04 481.11 117.03 488.4 113.83 496.14 111.71 504.3 110.4 512.57 108.93 521.29 107.54 530.4 105.84 539.64 102.95 549.28 99.21 559.25 94.5 569.35 88.32 579.76 81.33 590.43 73.85 601.18 65.82 612.17 58.2 623.32 51.51 634.52 45.8 645.85 41.91 657.26 40.18 665.83 40.11 683.02 43.21 691.61 46.17" stroke-dasharray="0 0" transform="rotate(0, 711, 400)" opacity="0.05"></path><path d="M688.91 57.82C699.9 62.65 710.64 68.18 721.11 73.82 731.58 78.58 741.8 82.57 751.75 85.59 761.73 86.99 771.49 87.46 781.05 87.24 790.69 86.08 800.19 85.02 809.6 84.48 819.19 84.34 828.77 85.52 838.41 88.27 848.34 92.31 858.43 98.16 868.72 105.72 879.4 114.52 890.37 124.68 901.63 135.85 913.31 147.54 925.28 159.67 937.5 171.91 950.02 183.85 962.66 195.48 975.27 206.66 987.89 217.05 1000.21 226.89 1012.01 236.2 1023.35 244.67 1033.79 252.77 1043.08 260.63 1051.39 267.85 1058.2 275.07 1063.28 282.43 1067.03 289.41 1068.89 296.73 1068.8 304.49 1067.41 312.06 1064.23 320.17 1059.39 328.89 1053.79 337.52 1047.05 346.8 1039.47 356.76 1032.1 366.67 1024.6 377.29 1017.36 388.65 1011.33 400.01 1006.26 411.89 1002.32 424.28 1000.07 436.73 998.99 449.76 999.01 463.37 1000.52 477.09 1002.76 491.41 1005.5 506.29 1009.07 521.23 1012.6 536.63 1015.78 552.29 1019.03 567.76 1021.45 583.15 1022.83 598.11 1023.67 612.27 1023.19 625.4 1021.33 637.02 1018.62 647.03 1014.47 654.88 1008.97 660.18 1002.61 663.39 995.02 663.85 986.35 661.63 977.02 657.93 966.82 652.37 955.91 645.66 944.61 639.58 932.81 634.19 920.66 630.59 908.36 630.38 895.86 633.68 883.27 641.12 870.68 653.12 858.08 669.1 845.55 688.34 833.08 709.69 820.7 731.55 808.45 752.03 796.29 769.48 784.23 782.07 772.32 788.35 760.47 788.2 748.73 781.07 737.12 767.66 725.54 750.34 714.05 730.38 702.69 710.27 691.32 693.3 680.31 681.11 669.67 674.91 658.99 675.6 648.66 682.26 638.68 693.62 628.65 708.77 618.95 724.93 609.57 740 600.13 753.02 591 761.6 582.18 764.84 573.25 762.95 564.61 755.38 556.23 742.86 547.72 726.54 539.44 707.34 531.4 686.66 523.17 665.6 515.15 645.34 507.32 626.76 499.28 610.41 491.43 596.71 483.76 585.69 475.88 577.47 468.2 571.53 460.75 567.38 453.13 565.11 445.76 563.67 438.69 562.47 431.54 561.94 424.74 560.86 418.35 558.9 411.97 556.77 406.07 553.4 400.69 548.73 395.42 543.61 390.73 537.18 386.66 529.57 382.77 521.55 379.53 512.51 376.98 502.6 374.62 492.47 372.95 481.64 372 470.24 371.23 458.77 371.16 446.84 371.81 434.52 372.59 422.19 374.03 409.77 376.09 397.3 378.2 384.81 380.88 372.21 384.08 359.49 387.24 346.71 390.87 333.74 394.91 320.59 398.82 307.34 403.1 293.88 407.71 280.25 412.12 266.59 416.83 252.85 421.8 239.15 426.55 225.67 431.57 212.45 436.83 199.71 441.9 187.57 447.25 176.23 452.89 165.93 458.38 156.59 464.21 148.54 470.37 141.9 476.47 136.29 482.95 132.05 489.82 129.09 496.71 126.67 504.01 125.07 511.72 124 519.49 122.52 527.68 120.87 536.26 118.75 544.94 115.35 553.99 111.04 563.39 105.77 572.88 99.13 582.68 91.8 592.75 84.1 602.9 76.03 613.28 68.47 623.85 61.95 634.46 56.47 645.22 52.84 656.08 51.34 666.96 51.51 677.92 53.75 688.9 57.82" stroke-dasharray="0 0" transform="rotate(0.7857142857142857, 711, 400)" opacity="0.08"></path><path d="M687.18 69.47C697.73 74.38 708.09 79.99 718.25 85.74 728.41 90.66 738.38 94.87 748.17 98.14 757.98 99.83 767.65 100.56 777.19 100.53 786.81 99.47 796.37 98.33 805.9 97.54 815.6 96.92 825.35 97.43 835.18 99.32 845.29 102.34 855.56 107.07 866.03 113.48 876.85 121.17 887.91 130.31 899.2 140.62 910.84 151.66 922.68 163.38 934.67 175.45 946.85 187.51 959.04 199.49 971.09 211.2 983.04 222.36 994.6 233.06 1005.54 243.3 1015.98 252.8 1025.47 261.89 1033.8 270.66 1041.18 278.79 1047.11 286.79 1051.39 294.77 1054.46 302.33 1055.78 310.06 1055.3 318.09 1053.67 325.87 1050.42 334.08 1045.67 342.81 1040.28 351.4 1033.87 360.6 1026.7 370.43 1019.75 380.21 1012.69 390.7 1005.83 401.92 1000.09 413.14 995.19 424.89 991.29 437.15 988.93 449.45 987.63 462.28 987.31 475.6 988.38 488.97 990.14 502.79 992.38 516.95 995.46 531.04 998.55 545.3 1001.4 559.5 1004.4 573.3 1006.72 586.66 1008.16 599.24 1009.2 610.86 1009.08 621.16 1007.73 629.76 1003.98 639.26 988.96 644.41 978.02 640.22 969.76 635.98 960.59 630.64 950.69 624.96 940.38 620.55 929.5 617.43 918.21 616.52 906.71 619.09 894.94 625.12 883 634.97 871.01 648.74 858.95 665.78 846.88 685.26 834.85 706.03 822.86 726.6 810.96 745.27 799.11 760.68 787.36 771.24 775.73 775.8 764.15 774.44 752.67 766.75 741.32 753.44 730 736.73 718.78 717.72 707.69 698.62 696.59 682.4 685.86 670.49 675.48 664 665.08 663.81 655.01 669.16 645.28 679.01 635.51 692.69 626.05 707.73 616.9 722.28 607.68 735.49 598.75 745.1 590.11 750.12 581.36 750.66 572.87 745.93 564.63 736.38 556.24 722.95 548.07 706.25 540.12 687.46 531.98 667.58 524.03 647.66 516.27 628.64 508.31 611.06 500.52 595.51 492.92 582.22 485.13 571.33 477.53 562.66 470.15 555.89 462.63 551.09 455.37 547.48 448.4 544.57 441.37 542.66 434.69 540.71 428.41 538.36 422.16 536.2 416.38 533.19 411.11 529.18 405.96 524.97 401.38 519.64 397.41 513.19 393.62 506.47 390.47 498.72 388 490.01 385.74 481.12 384.16 471.4 383.28 460.95 382.6 450.43 382.61 439.27 383.33 427.52 384.19 415.78 385.71 403.76 387.82 391.52 389.99 379.29 392.7 366.82 395.92 354.15 399.09 341.47 402.71 328.56 406.72 315.46 410.61 302.37 414.85 289.12 419.39 275.8 423.73 262.61 428.36 249.47 433.23 236.54 437.89 224 442.79 211.89 447.93 200.43 452.86 189.68 458.05 179.85 463.5 171.13 468.8 163.36 474.4 156.84 480.31 151.65 486.13 147.3 492.31 144.13 498.84 141.99 505.36 140.13 512.26 138.82 519.54 137.76 526.86 136.07 534.57 134.03 542.65 131.37 550.79 127.38 559.31 122.48 568.15 116.66 577.07 109.61 586.3 101.99 595.8 94.14 605.36 86.08 615.17 78.65 625.18 72.34 635.22 67.14 645.44 63.79 655.79 62.54 666.15 62.91 676.63 65.3 687.17 69.47" stroke-dasharray="0 0" transform="rotate(1.5714285714285714, 711, 400)" opacity="0.12"></path><path d="M686.5 81.12C696.64 86.1 706.65 91.76 716.52 97.59 726.4 102.66 736.15 107.08 745.78 110.6 755.45 112.6 765.03 113.63 774.54 113.84 784.14 112.95 793.74 111.83 803.34 110.88 813.11 109.9 822.97 109.83 832.93 110.95 843.13 113.01 853.5 116.65 864.05 121.9 874.88 128.38 885.91 136.37 897.13 145.63 908.59 155.78 920.17 166.81 931.81 178.41 943.55 190.26 955.19 202.25 966.58 214.2 977.8 225.84 988.55 237.18 998.61 248.15 1008.13 258.55 1016.69 268.56 1024.09 278.23 1030.59 287.32 1035.68 296.19 1039.24 304.94 1041.69 313.25 1042.52 321.6 1041.7 330.12 1039.89 338.35 1036.6 346.89 1031.97 355.82 1026.81 364.6 1020.72 373.87 1013.96 383.7 1007.43 393.47 1000.78 403.87 994.3 414.93 988.84 426 984.12 437.51 980.28 449.43 977.83 461.38 976.32 473.74 975.7 486.43 976.36 499.09 977.67 512 979.44 525.01 982.03 537.83 984.68 550.52 987.17 562.85 989.89 574.65 992.05 585.72 993.48 595.74 992.83 616.2 978.36 623.51 968.86 618.35 961.6 614.34 953.44 609.93 944.53 605.84 935.2 603.49 925.27 602.87 914.86 604.69 904.22 609.89 893.24 618.35 882.02 630.19 870.71 645.29 859.26 662.94 847.75 682.25 836.24 702.12 824.71 721.2 813.23 737.96 801.78 751.34 790.39 759.96 779.1 762.93 767.84 760.51 756.67 752.37 745.62 739.23 734.59 723.15 723.65 705.08 712.83 686.97 702.02 671.49 691.55 659.88 681.43 653.16 671.29 652.17 661.47 656.3 651.97 664.7 642.42 676.89 633.18 690.72 624.23 704.56 615.2 717.7 606.45 728 597.95 734.46 589.35 737.1 580.99 734.96 572.85 728.26 564.58 717.76 556.5 703.76 548.62 687.24 540.57 669.07 532.69 650.16 524.99 631.39 517.1 613.33 509.38 596.64 501.85 581.7 494.14 568.66 486.63 557.6 479.34 548.38 471.94 541.03 464.78 535.08 457.93 530.13 451.03 526.39 444.48 523.01 438.33 519.66 432.23 516.79 426.58 513.47 421.43 509.49 416.42 505.54 411.96 500.71 408.1 494.95 404.44 489.05 401.4 482.2 399.02 474.41 396.86 466.49 395.37 457.7 394.58 448.1 393.99 438.44 394.07 428.03 394.86 416.93 395.79 405.83 397.36 394.33 399.52 382.51 401.73 370.72 404.47 358.62 407.69 346.27 410.88 333.97 414.49 321.44 418.47 308.76 422.33 296.19 426.53 283.54 431.01 270.93 435.3 258.58 439.86 246.42 444.65 234.62 449.22 223.32 454.03 212.59 459.05 202.64 463.86 193.43 468.92 185.19 474.21 178.08 479.34 171.81 484.75 166.71 490.44 162.79 496.02 159.5 501.92 157.15 508.15 155.59 514.34 154.03 520.88 152.76 527.78 151.51 534.68 149.45 541.95 146.88 549.57 143.6 557.23 139 565.24 133.5 573.57 127.17 581.95 119.75 590.64 111.9 599.61 103.97 608.62 95.99 617.89 88.75 627.38 82.7 636.88 77.81 646.59 74.76 656.46 73.76 666.34 74.34 676.36 76.87 686.49 81.12" stroke-dasharray="0 0" transform="rotate(2.357142857142857, 711, 400)" opacity="0.15"></path><path d="M686.91 92.77C696.66 97.79 706.35 103.49 715.95 109.38 725.56 114.58 735.1 119.19 744.58 122.96 754.1 125.27 763.58 126.63 773.05 127.13 782.61 126.47 792.2 125.47 801.83 124.46 811.62 123.25 821.51 122.72 831.51 123.17 841.72 124.37 852.09 126.98 862.6 131.07 873.34 136.33 884.23 143.07 895.24 151.15 906.4 160.21 917.62 170.29 928.8 181.14 939.99 192.45 951 204.13 961.68 215.97 972.12 227.75 982.01 239.41 991.19 250.84 999.8 261.9 1007.45 272.64 1013.96 283.07 1019.61 293.03 1023.94 302.73 1026.83 312.25 1028.72 321.36 1029.12 330.42 1028.03 339.52 1026.07 348.34 1022.79 357.33 1018.3 366.57 1013.37 375.67 1007.62 385.13 1001.26 395.01 995.13 404.83 988.89 415.15 982.77 425.99 977.59 436.84 973.04 447.99 969.27 459.4 966.76 470.81 965.07 482.44 964.18 494.2 964.47 505.88 965.35 517.58 966.67 529.11 968.79 540.38 971 551.25 973.12 561.51 975.52 571.19 977.48 579.93 978.83 587.47 978.86 601.07 967.08 601.9 958.88 596.92 952.56 593.8 945.36 590.87 937.41 588.79 929.05 588.75 920.06 590.68 910.55 595.12 900.79 602.69 890.63 613.21 880.18 626.59 869.61 642.55 858.84 660.36 847.95 679.13 837.03 697.84 826.04 715.25 815.04 730.07 804.06 741.46 793.09 748.25 782.19 749.77 771.31 746.43 760.49 737.94 749.76 725.03 739.05 709.61 728.43 692.47 717.9 675.32 707.37 660.57 697.17 649.29 687.31 642.39 677.42 640.69 667.83 643.67 658.55 650.69 649.22 661.41 640.17 673.96 631.39 686.93 622.54 699.76 613.93 710.43 605.57 717.97 597.11 722.36 588.86 722.52 580.81 718.47 572.64 710.82 564.64 699.62 556.83 685.61 548.86 669.58 541.05 652.22 533.41 634.37 525.61 616.55 517.97 599.46 510.5 583.54 502.9 568.98 495.49 556.05 488.3 544.75 481.02 535.1 474 526.87 467.27 519.81 460.52 514 454.12 508.87 448.11 504.11 442.17 500.01 436.67 495.83 431.67 491.33 426.81 487.05 422.49 482.19 418.76 476.62 415.22 471.04 412.3 464.67 410.04 457.46 407.99 450.19 406.59 442.1 405.89 433.2 405.38 424.26 405.54 414.56 406.39 404.12 407.39 393.69 409 382.82 411.19 371.59 413.43 360.39 416.19 348.88 419.41 337.14 422.6 325.48 426.19 313.64 430.14 301.72 433.98 289.98 438.13 278.27 442.56 266.72 446.81 255.5 451.3 244.6 456.02 234.2 460.52 224.33 465.25 215.14 470.17 206.8 474.89 199.15 479.83 192.48 484.99 186.89 489.98 181.98 495.22 178.11 500.71 175.23 506.09 172.73 511.75 170.93 517.72 169.67 523.61 168.16 529.84 166.71 536.39 165.07 542.92 162.5 549.79 159.31 557 155.35 564.21 150.12 571.77 144.06 579.63 137.26 587.52 129.55 595.72 121.55 604.2 113.61 612.7 105.78 621.46 98.79 630.46 93.04 639.47 88.48 648.71 85.75 658.13 85.01 667.55 85.8 677.15 88.46 686.91 92.77" stroke-dasharray="0 0" transform="rotate(3.142857142857143, 711, 400)" opacity="0.19"></path><path d="M688.37 104.43C697.77 109.47 707.15 115.18 716.49 121.11 725.85 126.42 735.18 131.2 744.5 135.2 753.86 137.84 763.23 139.53 772.62 140.37 782.1 140.01 791.64 139.2 801.24 138.23 810.98 136.9 820.83 136.05 830.78 135.97 840.9 136.41 851.16 138.09 861.53 141.1 872.06 145.14 882.7 150.62 893.38 157.43 904.15 165.25 914.9 174.19 925.52 184.03 936.09 194.5 946.4 205.54 956.31 216.93 965.93 228.48 974.96 240.11 983.25 251.67 990.97 263.06 997.73 274.25 1003.4 285.19 1008.27 295.81 1011.9 306.18 1014.18 316.34 1015.58 326.19 1015.62 335.9 1014.3 345.54 1012.24 354.96 1008.99 364.42 1004.66 374 999.98 383.44 994.55 393.1 988.58 403.02 982.85 412.9 977 423.1 971.24 433.65 966.33 444.2 961.97 454.87 958.27 465.6 955.71 476.31 953.88 487.04 952.74 497.67 952.69 508.19 953.18 518.48 954.07 528.38 955.74 537.98 957.52 546.98 959.26 555.18 963.87 579.34 955.18 580.56 948.15 576.77 942.69 575.07 936.39 574.02 929.34 574.19 921.91 576.52 913.83 580.92 905.22 587.74 896.34 597.34 887.03 609.47 877.38 623.93 867.59 640.29 857.54 657.86 847.31 675.75 837.03 693.06 826.63 708.71 816.18 721.57 805.72 731.03 795.23 736.12 784.77 736.34 774.31 732.19 763.89 723.47 753.53 710.84 743.17 696.1 732.88 679.87 722.66 663.66 712.44 649.65 702.52 638.71 692.91 631.69 683.27 629.35 673.92 631.29 664.84 636.98 655.72 646.25 646.85 657.49 638.24 669.46 629.55 681.75 621.09 692.51 612.85 700.79 604.51 706.57 596.36 708.69 588.41 707.02 580.33 702.06 572.42 693.62 564.67 682.26 556.79 668.66 549.06 653.29 541.49 636.9 533.79 620 526.24 603.2 518.87 587.02 511.38 571.65 504.09 557.47 497.02 544.61 489.89 533.08 483.01 522.87 476.43 513.85 469.85 506.01 463.61 499.02 457.77 492.63 452 487 446.67 481.59 441.83 476.17 437.13 471.1 432.97 465.74 429.38 459.94 425.99 454.24 423.2 447.95 421.05 441.01 419.12 434.06 417.83 426.4 417.2 418.04 416.78 409.64 417.02 400.55 417.92 390.78 418.97 381 420.62 370.82 422.83 360.31 425.1 349.84 427.86 339.1 431.07 328.19 434.25 317.39 437.82 306.49 441.74 295.6 445.55 284.94 449.66 274.41 454.03 264.16 458.23 254.28 462.68 244.83 467.33 235.96 471.77 227.61 476.42 219.99 481.27 213.22 485.9 207.06 490.75 201.82 495.79 197.55 503.21 192.32 519.02 185.97 527.48 183.97 533.13 182.28 539.08 180.45 545.33 178.26 551.53 175.07 558.06 171.19 564.89 166.55 571.71 160.71 578.86 154.13 586.3 146.94 593.75 139.01 601.49 130.95 609.52 123.09 617.56 115.47 625.86 108.78 634.41 103.38 642.97 99.18 651.76 96.77 660.76 96.3 669.76 97.28 678.97 100.06 688.37 104.43" stroke-dasharray="0 0" transform="rotate(3.928571428571429, 711, 400)" opacity="0.22"></path><path d="M690.84 116.08C699.9 121.12 708.99 126.83 718.07 132.77 727.17 138.16 736.3 143.1 745.43 147.33 754.62 150.28 763.84 152.32 773.11 153.52 782.46 153.5 791.89 152.96 801.39 152.14 811.01 150.81 820.73 149.77 830.54 149.28 840.49 149.13 850.53 150 860.65 152.03 870.87 154.93 881.14 159.17 891.39 164.68 901.68 171.18 911.86 178.84 921.86 187.49 931.74 196.87 941.3 206.97 950.41 217.59 959.2 228.56 967.37 239.79 974.78 251.12 981.63 262.47 987.56 273.75 992.44 284.89 996.59 295.86 999.57 306.64 1001.31 317.22 1002.28 327.58 1002.01 337.79 1000.52 347.85 998.4 357.75 995.21 367.59 991.05 377.42 986.63 387.15 981.53 396.95 975.95 406.85 970.6 416.72 965.13 426.74 959.72 436.91 955.07 447.08 950.89 457.16 947.29 467.1 944.7 477.01 942.74 486.72 941.39 496.14 941.03 505.42 941.16 514.27 941.66 522.55 942.89 530.53 944.26 537.77 945.62 544.11 946.24 560.57 929.31 559.24 920.36 562.27 913.8 566.89 906.61 573.53 898.85 582.38 890.85 593.6 882.38 606.88 873.53 621.93 864.53 638.26 855.23 655.21 845.71 671.95 836.11 687.7 826.34 701.5 816.48 712.42 806.58 720.06 796.62 723.58 786.64 722.64 776.65 717.83 766.66 708.96 756.69 696.68 746.73 682.62 736.79 667.3 726.9 652.01 717.01 638.71 707.39 628.15 698.04 621.05 688.67 618.16 679.54 619.14 670.67 623.59 661.77 631.46 653.08 641.35 644.63 652.23 636.11 663.8 627.78 674.37 619.66 683.07 611.45 689.87 603.42 693.59 595.55 693.99 587.58 691.48 579.76 685.68 572.1 676.97 564.32 665.94 556.68 652.87 549.2 638.38 541.61 622.94 534.17 607.08 526.91 591.32 519.57 575.84 512.41 561.1 505.49 547.32 498.52 534.47 491.81 522.75 485.4 512.1 479 502.47 472.95 493.74 467.29 485.74 461.72 478.51 456.57 471.7 451.91 465.13 447.4 458.99 443.41 452.82 439.98 446.47 436.75 440.3 434.1 433.77 432.07 426.8 430.26 419.87 429.07 412.42 428.53 404.4 428.2 396.38 428.5 387.79 429.44 378.63 430.54 369.48 432.22 360.01 434.44 350.29 436.72 340.63 439.48 330.79 442.66 320.86 445.83 311.06 449.37 301.26 453.25 291.59 457.02 282.15 461.09 272.95 465.41 264.12 469.57 255.65 473.96 247.69 478.55 240.35 482.94 233.48 487.53 227.34 492.3 222.01 499.25 215.13 513.84 205.83 521.52 203.01 526.57 201.22 531.87 199.68 537.4 198.21 542.84 196.12 548.55 193.75 554.53 190.9 560.46 187.02 566.68 182.44 573.18 177.12 579.66 170.73 586.44 163.71 593.51 156.21 600.56 148.16 607.91 140.12 615.53 132.42 623.14 125.09 631.03 118.74 639.17 113.72 647.31 109.91 655.69 107.83 664.31 107.62 672.93 108.8 681.77 111.68 690.84 116.08" stroke-dasharray="0 0" transform="rotate(4.714285714285714, 711, 400)" opacity="0.25"></path><path d="M694.19 127.73C702.94 132.76 711.73 138.44 720.56 144.37 729.4 149.82 738.29 154.89 747.23 159.32 756.2 162.57 765.24 164.97 774.35 166.54 783.51 166.92 792.77 166.71 802.1 166.12 811.51 164.9 821.02 163.8 830.6 163.07 840.27 162.47 850.01 162.68 859.77 163.87 869.59 165.75 879.4 168.82 889.14 173.08 898.85 178.23 908.41 184.55 917.72 191.88 926.87 199.99 935.65 208.93 943.94 218.52 951.89 228.59 959.21 239.07 965.77 249.81 971.8 260.74 976.94 271.75 981.09 282.72 984.57 293.69 986.98 304.54 988.25 315.24 988.84 325.83 988.32 336.27 986.7 346.54 984.55 356.7 981.45 366.75 977.49 376.68 973.32 386.56 968.55 396.38 963.34 406.15 958.36 415.9 953.26 425.64 948.19 435.34 943.8 445.04 939.81 454.46 936.3 463.57 933.71 472.63 931.65 481.31 930.12 489.52 929.49 497.61 929.28 505.11 929.42 511.93 935.17 539.26 929.85 542.38 924.73 543.11 920.71 545.14 915.96 548.35 910.52 553.08 904.77 559.79 898.39 568.34 891.46 578.82 884.29 591.19 876.64 605.15 868.58 620.33 860.37 636.24 851.83 652.25 843.02 667.6 834.13 681.66 825.02 693.6 815.77 702.64 806.49 708.55 797.08 710.65 787.61 708.7 778.14 703.35 768.61 694.43 759.07 682.54 749.53 669.18 739.98 654.74 730.45 640.36 720.91 627.77 711.6 617.59 702.52 610.46 693.43 607.1 684.56 607.21 675.9 610.51 667.22 617.03 658.73 625.57 650.44 635.29 642.09 645.98 633.92 656.13 625.93 664.94 617.86 672.41 609.94 677.36 602.18 679.48 594.34 679.12 586.63 675.75 579.07 669.59 571.41 661.17 563.89 650.55 556.52 638.25 549.06 624.71 541.76 610.33 534.64 595.58 527.45 580.68 520.47 566.06 513.71 552 506.93 538.49 500.41 525.82 494.19 514.03 488.01 503.03 482.16 492.88 476.7 483.48 471.34 474.77 466.41 466.6 461.94 458.85 457.63 451.54 453.82 444.42 450.56 437.33 447.49 430.48 445 423.5 443.1 416.29 441.41 409.16 440.33 401.71 439.88 393.9 439.63 386.09 439.99 377.89 440.97 369.29 442.11 360.68 443.81 351.91 446.02 343.02 448.3 334.17 451.04 325.27 454.2 316.41 457.34 307.66 460.85 299.03 464.67 290.64 468.41 282.45 472.43 274.59 476.69 267.19 480.8 260.09 485.14 253.53 489.67 247.62 494.02 242.06 498.55 237.19 503.25 233.06 510.11 227.67 524.45 220.24 531.97 217.7 536.9 215.83 542.05 214.02 547.42 212.1 552.68 209.46 558.19 206.42 563.95 202.83 569.63 198.24 575.59 192.97 581.81 187.03 587.99 180.17 594.45 172.79 601.18 165.1 607.89 157.02 614.88 149.1 622.14 141.64 629.38 134.65 636.89 128.7 644.66 124.09 652.41 120.67 660.43 118.94 668.69 118.99 676.94 120.35 685.45 123.32 694.19 127.73" stroke-dasharray="0 0" transform="rotate(5.5, 711, 400)" opacity="0.29"></path><path d="M698.29 139.38C706.72 144.37 715.23 150 723.78 155.9 732.35 161.39 740.99 166.56 749.69 171.17 758.43 174.7 767.24 177.45 776.12 179.41 785.05 180.2 794.06 180.37 803.14 180.1 812.28 179.1 821.49 178.08 830.74 177.25 840.06 176.36 849.4 176.09 858.72 176.59 868.05 177.6 877.33 179.63 886.48 182.73 895.56 186.6 904.43 191.57 913.01 197.55 921.4 204.29 929.38 211.91 936.85 220.26 943.98 229.18 950.47 238.63 956.22 248.47 961.48 258.63 965.89 269 969.37 279.46 972.25 290.04 974.15 300.61 975.01 311.09 975.29 321.58 974.56 331.93 972.86 342.13 970.71 352.3 967.72 362.31 963.97 372.14 960.06 381.96 955.62 391.63 950.77 401.13 946.15 410.63 941.4 419.98 936.66 429.14 932.53 438.3 928.73 447.04 925.33 455.31 922.74 463.55 920.61 471.26 918.93 478.4 917.8 488.6 918.1 505.17 919.02 511.28 921.5 521.48 916.6 527.04 912.21 530.58 908.78 534.59 904.66 539.85 899.91 546.57 894.88 555.03 889.25 565.1 883.08 576.73 876.7 589.79 869.83 603.96 862.54 618.85 855.1 633.97 847.3 648.78 839.21 662.58 831.02 674.88 822.59 684.96 813.97 692.2 805.31 696.52 796.49 697.35 787.57 694.54 778.63 688.77 769.6 679.88 760.51 668.42 751.42 655.78 742.29 642.21 733.13 628.71 723.97 616.82 714.99 607.03 706.22 599.94 697.43 596.18 688.82 595.51 680.4 597.74 671.95 602.97 663.67 610.2 655.56 618.71 647.4 628.4 639.4 637.93 631.56 646.57 623.65 654.38 615.87 660.19 608.25 663.66 600.54 665.1 592.97 663.87 585.54 660.06 578.03 654.15 570.65 646.03 563.42 636.08 556.13 624.72 549 612.21 542.04 598.97 535.05 585.22 528.25 571.35 521.69 557.65 515.13 544.15 508.82 531.16 502.82 518.81 496.87 506.98 491.25 495.85 486.02 485.42 480.89 475.54 476.17 466.25 471.92 457.45 467.82 449.06 464.21 440.99 461.13 433.15 458.24 425.55 455.9 418.01 454.13 410.46 452.58 403.01 451.61 395.44 451.24 387.71 451.06 380 451.48 372.08 452.5 363.95 453.67 355.83 455.37 347.69 457.57 339.59 459.85 331.53 462.56 323.55 465.67 315.72 468.78 307.99 472.24 300.5 476 293.33 479.7 286.32 483.66 279.72 487.86 273.6 491.92 267.72 496.2 262.38 500.67 257.66 507.21 251.23 520.86 241.64 527.97 238.26 534.99 235.1 549.71 229.05 557.45 225.37 562.57 222.05 567.91 218.27 573.48 213.93 578.96 208.64 584.7 202.74 590.67 196.26 596.6 189.02 602.78 181.41 609.22 173.62 615.63 165.63 622.3 157.91 629.23 150.77 636.14 144.18 643.32 138.67 650.75 134.5 658.16 131.49 665.83 130.1 673.76 130.4 681.68 131.92 689.86 134.98 698.29 139.38" stroke-dasharray="0 0" transform="rotate(6.285714285714286, 711, 400)" opacity="0.32"></path><path d="M702.95 151.03C711.07 155.97 719.28 161.52 727.55 167.36 735.83 172.86 744.19 178.1 752.62 182.87 761.08 186.66 769.61 189.74 778.2 192.08 786.84 193.31 795.55 193.9 804.3 194 813.09 193.32 821.93 192.49 830.78 191.7 839.66 190.69 848.52 190.11 857.32 190.12 866.11 190.43 874.78 191.6 883.29 193.68 891.69 196.38 899.85 200.08 907.67 204.74 915.28 210.09 922.47 216.32 929.13 223.33 935.46 230.92 941.16 239.14 946.15 247.84 950.69 256.93 954.43 266.36 957.3 275.99 959.65 285.84 961.1 295.78 961.61 305.72 961.63 315.75 960.75 325.71 959 335.54 956.89 345.41 954.03 355.12 950.49 364.63 946.85 374.16 942.72 383.49 938.23 392.59 933.96 401.69 929.56 410.56 925.13 419.13 921.26 427.7 917.64 435.76 914.36 443.27 911.8 450.75 909.61 457.63 907.81 463.89 906.34 472.81 905.68 487 906.08 492.21 907.52 503.36 903.09 514.9 899.3 521.25 896.35 527.09 892.78 534.15 888.62 542.53 884.23 552.34 879.28 563.46 873.8 575.77 868.14 589.04 862 602.99 855.43 617.2 848.73 631.26 841.65 644.64 834.25 656.78 826.77 667.29 819.01 675.57 811.03 681.12 803 684 794.78 683.7 786.41 680.17 778.02 674.1 769.51 665.32 760.9 654.34 752.29 642.41 743.59 629.7 734.84 617.06 726.08 605.86 717.46 596.49 709 589.46 700.54 585.37 692.22 584.02 684.05 585.29 675.86 589.31 667.82 595.25 659.91 602.53 651.98 611.13 644.17 619.87 636.5 628.12 628.77 635.95 621.17 642.28 613.7 646.73 606.18 649.59 598.77 650.16 591.5 648.43 584.16 644.83 576.96 639.11 569.92 631.52 562.82 622.49 555.88 612.11 549.13 600.72 542.36 588.59 535.78 576 529.44 563.23 523.12 550.35 517.06 537.66 511.3 525.34 505.61 513.27 500.24 501.72 495.25 490.73 490.37 480.12 485.89 470.05 481.86 460.49 477.98 451.26 474.58 442.43 471.69 433.94 468.99 425.66 466.81 417.6 465.19 409.7 463.76 401.9 462.9 394.16 462.61 386.45 462.51 378.77 462.98 371.06 464.03 363.33 465.22 355.6 466.92 348.03 469.1 340.64 471.35 333.27 474.03 326.12 477.09 319.24 480.15 312.42 483.55 305.93 487.25 299.82 490.88 293.83 494.78 288.29 498.9 283.24 505.02 276.14 517.99 264.77 524.78 260.44 531.47 256.53 545.41 249.91 552.66 246.64 557.4 243.93 562.33 241 567.44 237.73 572.44 233.69 577.64 229.15 583.04 224.08 588.36 218.16 593.9 211.72 599.67 204.81 605.37 197.31 611.32 189.58 617.51 181.83 623.65 174.02 630.04 166.6 636.69 159.84 643.3 153.71 650.17 148.67 657.29 144.96 664.39 142.36 671.75 141.31 679.36 141.85 686.96 143.54 694.83 146.65 702.95 151.03" stroke-dasharray="0 0" transform="rotate(7.071428571428572, 711, 400)" opacity="0.36"></path><path d="M707.96 162.68C715.78 167.55 723.67 173.01 731.64 178.76 739.61 184.24 747.67 189.52 755.78 194.41 763.92 198.44 772.13 201.82 780.38 204.53 788.67 206.19 797 207.23 805.36 207.75 813.74 207.46 822.14 206.93 830.51 206.31 838.89 205.34 847.21 204.63 855.44 204.33 863.61 204.15 871.64 204.65 879.46 205.9 887.16 207.6 894.58 210.17 901.64 213.61 908.48 217.64 914.89 222.51 920.77 228.15 926.34 234.35 931.3 241.21 935.58 248.62 939.45 256.45 942.58 264.71 944.91 273.27 946.8 282.1 947.86 291.13 948.08 300.23 947.89 309.5 946.91 318.77 945.14 327.97 943.09 337.25 940.38 346.41 937.07 355.39 933.69 364.41 929.88 373.22 925.73 381.78 921.79 390.35 917.72 398.65 913.61 406.62 909.98 414.58 906.55 422 903.4 428.85 899.76 438.8 895 455.58 893.75 462.38 893.66 473.26 894.34 485.49 894 489.1 893.3 493.65 889.43 506.18 886.1 515.1 883.54 522.51 880.43 531 876.77 540.61 872.93 551.32 868.57 563.01 863.72 575.51 858.7 588.56 853.23 601.9 847.34 615.12 841.32 627.87 834.92 639.7 828.2 650.1 821.38 658.85 814.28 665.41 806.92 669.41 799.52 670.99 791.9 669.73 784.1 665.62 776.27 659.36 768.29 650.77 760.18 640.3 752.06 629.09 743.82 617.22 735.49 605.41 727.16 594.88 718.92 585.94 710.81 579.02 702.7 574.69 694.69 572.75 686.8 573.14 678.91 576.04 671.12 580.75 663.45 586.82 655.76 594.27 648.18 602.1 640.71 609.75 633.21 617.33 625.81 623.84 618.54 628.91 611.22 632.81 604.02 634.8 596.94 634.82 589.83 633.25 582.84 629.72 576 624.4 569.14 617.69 562.44 609.53 555.92 600.22 549.4 590.01 543.08 579.08 536.99 567.7 530.94 555.97 525.15 544.14 519.66 532.4 514.24 520.69 509.14 509.27 504.41 498.23 499.79 487.4 495.57 477 491.78 467.06 488.14 457.35 484.96 448.04 482.26 439.12 479.75 430.38 477.74 421.94 476.25 413.77 474.97 405.7 474.21 397.82 474 390.12 473.98 382.45 474.49 374.91 475.55 367.51 476.76 360.11 478.45 353 480.6 346.2 482.82 339.41 485.45 332.95 488.44 326.84 491.45 320.77 494.77 315.09 498.39 309.83 503.87 302.25 515.84 289.5 522.24 284.33 528.61 279.57 541.91 271.67 548.82 268.15 555.65 264.17 569.88 254.84 577.31 248.97 582.2 244.2 587.27 238.95 592.54 233.22 597.71 226.78 603.09 219.91 608.67 212.71 614.19 205.08 619.93 197.37 625.89 189.76 631.8 182.24 637.95 175.21 644.34 168.9 650.68 163.27 657.28 158.74 664.11 155.48 670.92 153.31 677.98 152.58 685.29 153.36 692.59 155.18 700.15 158.34 707.96 162.68" stroke-dasharray="0 0" transform="rotate(7.857142857142858, 711, 400)" opacity="0.39"></path><path d="M713.11 174.33C720.6 179.11 728.18 184.45 735.81 190.09 743.45 195.52 751.17 200.82 758.93 205.79 766.71 210.01 774.54 213.67 782.41 216.72 790.29 218.81 798.2 220.31 806.1 221.28 814.02 221.44 821.92 221.29 829.76 220.95 837.58 220.17 845.31 219.5 852.91 219.08 860.45 218.62 867.8 218.66 874.92 219.28 881.9 220.19 888.58 221.83 894.88 224.22 900.98 227.06 906.63 230.68 911.77 235.03 916.62 239.85 920.89 245.34 924.52 251.41 927.79 257.89 930.38 264.85 932.24 272.18 933.72 279.81 934.46 287.71 934.45 295.78 934.1 304.05 933.04 312.39 931.3 320.74 929.33 329.2 926.78 337.59 923.7 345.86 920.58 354.18 917.07 362.33 913.26 370.25 909.65 378.19 905.89 385.87 902.08 393.24 898.69 400.6 895.46 407.45 892.44 413.78 888.85 422.97 883.78 438.66 882.2 445.22 881.22 456.59 880.7 471.81 880.14 477.24 879.73 481.49 878.95 486.16 877.78 491.38 876.56 497.43 874.88 504.24 872.73 511.9 870.47 520.51 867.72 530.01 864.49 540.38 861.11 551.52 857.26 563.31 852.95 575.56 848.51 588 843.63 600.39 838.35 612.37 832.96 623.65 827.19 633.83 821.1 642.5 814.92 649.55 808.44 654.5 801.7 657.08 794.91 657.53 787.87 655.47 780.63 650.92 773.37 644.56 765.93 636.22 758.32 626.3 750.71 615.8 742.95 604.75 735.06 593.76 727.17 583.9 719.35 575.4 711.61 568.63 703.87 564.11 696.21 561.67 688.63 561.29 681.06 563.17 673.56 566.72 666.17 571.59 658.75 577.88 651.43 584.69 644.21 591.58 636.96 598.69 629.81 605.08 622.77 610.43 615.7 615 608.74 618.03 601.9 619.43 595.04 619.55 588.3 617.93 581.71 614.66 575.12 610.14 568.68 604.17 562.43 596.98 556.2 588.85 550.16 579.83 544.36 570.15 538.61 559.96 533.11 549.43 527.91 538.75 522.78 527.91 517.98 517.14 513.52 506.55 509.19 496.01 505.23 485.76 501.68 475.86 498.29 466.08 495.34 456.66 492.84 447.61 490.53 438.68 488.68 430.08 487.35 421.81 486.19 413.61 485.54 405.69 485.41 398.05 485.45 390.44 486.01 383.06 487.08 375.93 488.29 368.81 489.97 362.08 492.07 355.74 494.25 349.4 496.82 343.47 499.74 337.94 504.29 329.86 514.79 315.83 520.61 309.89 526.51 304.31 539.04 294.85 545.62 290.72 552.14 286.4 565.69 277.38 572.71 272.22 577.31 268.13 582.07 263.72 586.98 258.93 591.77 253.48 596.74 247.61 601.88 241.34 606.93 234.5 612.16 227.36 617.58 220.01 622.93 212.4 628.49 204.83 634.25 197.49 639.96 190.35 645.88 183.78 652.03 177.99 658.13 172.89 664.47 168.87 671.03 166.09 677.57 164.33 684.35 163.93 691.36 164.91 698.37 166.86 705.62 170.04 713.11 174.33" stroke-dasharray="0 0" transform="rotate(8.642857142857142, 711, 400)" opacity="0.42"></path><path d="M718.17 185.98C725.33 190.65 732.56 195.85 739.83 201.36 747.12 206.71 754.46 211.98 761.83 217 769.22 221.37 776.63 225.27 784.06 228.63 791.5 231.13 798.93 233.07 806.34 234.51 813.74 235.16 821.09 235.45 828.35 235.49 835.58 235.02 842.7 234.54 849.65 234.17 856.52 233.63 863.19 233.43 869.59 233.66 878.83 234.48 895.23 239.62 902.14 244.08 908.15 249.76 916.8 264.6 919.31 273.48 920.44 279.82 920.91 286.49 920.72 293.41 920.26 300.53 919.17 307.8 917.47 315.15 915.61 322.63 913.23 330.12 910.38 337.55 907.52 345.04 904.32 352.43 900.83 359.65 897.52 366.9 894.07 373.94 890.55 380.74 887.4 387.53 884.36 393.9 881.48 399.83 877.97 408.5 872.66 423.76 870.8 430.47 869.72 436.98 868.34 449.2 867.76 455.33 867.36 462.11 865.59 477.86 864.01 487.4 862.83 494.65 861.27 502.59 859.3 511.24 857.26 520.61 854.8 530.66 851.9 541.31 848.91 552.42 845.48 563.88 841.64 575.48 837.69 586.99 833.33 598.18 828.6 608.73 823.77 618.44 818.59 626.94 813.07 633.93 807.49 639.36 801.6 642.85 795.43 644.18 789.23 643.66 782.77 640.94 776.08 636.07 769.37 629.72 762.46 621.7 755.37 612.33 748.26 602.55 740.99 592.31 733.57 582.11 726.15 572.9 718.75 564.85 711.41 558.28 704.07 553.64 696.78 550.79 689.55 549.73 682.32 550.68 675.16 553.16 668.07 556.9 660.97 562.01 653.95 567.76 647.01 573.77 640.06 580.21 633.19 586.24 626.42 591.56 619.64 596.44 612.96 600.14 606.4 602.53 599.83 603.95 593.39 603.9 587.09 602.4 580.8 599.82 574.67 595.88 568.72 590.72 562.8 584.67 557.08 577.65 551.59 569.83 546.16 561.43 540.98 552.5 536.08 543.23 531.27 533.67 526.77 523.97 522.61 514.27 518.57 504.48 514.89 494.82 511.6 485.37 508.46 475.95 505.74 466.79 503.45 457.93 501.33 449.13 499.66 440.64 498.47 432.48 497.44 424.36 496.89 416.55 496.84 409.05 496.94 401.57 497.53 394.39 498.61 387.51 499.82 380.62 501.47 374.19 503.52 368.2 505.65 362.19 508.14 356.61 510.97 351.45 515.4 343.89 525.6 330.73 531.26 325.05 537.02 319.56 549.29 309.71 555.73 305.07 562.14 300.04 575.46 289.12 582.36 282.86 586.9 278.06 591.57 272.95 596.38 267.49 601.09 261.48 605.95 255.13 610.97 248.47 615.9 241.39 621 234.13 626.27 226.79 631.47 219.34 636.86 212.05 642.43 205.08 647.95 198.42 653.67 192.37 659.59 187.13 665.47 182.59 671.56 179.11 677.86 176.8 684.14 175.44 690.64 175.34 697.36 176.52 704.07 178.58 711 181.77 718.17 185.98" stroke-dasharray="0 0" transform="rotate(9.428571428571429, 711, 400)" opacity="0.46"></path><path d="M722.9 197.63C729.72 202.17 736.58 207.21 743.48 212.57 750.38 217.8 757.32 223.01 764.27 228.04 771.22 232.52 778.19 236.61 785.14 240.24 792.09 243.11 799.02 245.48 805.88 247.37 812.73 248.52 819.51 249.29 826.17 249.78 832.79 249.72 839.26 249.56 845.55 249.4 854.74 248.84 871.63 249.05 879.14 250.23 885.97 252.2 897.03 259.36 901.09 264.53 904.2 270.64 907.13 285.48 906.94 293.95 906.39 299.88 905.3 306.04 903.68 312.34 901.94 318.77 899.74 325.29 897.13 331.83 894.52 338.44 891.6 345.02 888.43 351.53 885.42 358.06 882.27 364.48 879.02 370.76 876.1 377.03 873.26 383 870.52 388.65 867.1 396.98 861.65 412.3 859.57 419.43 858.16 426.56 856.03 440.85 855.09 448.37 854.64 453.78 854.04 459.48 853.26 465.53 852.59 472.07 851.66 479.08 850.46 486.62 849.28 494.7 847.78 503.35 845.93 512.55 844.05 522.22 841.79 532.35 839.16 542.82 836.47 553.49 833.39 564.24 829.93 574.87 826.4 585.2 822.5 595 818.24 604.01 813.92 612.11 809.25 618.97 804.26 624.35 796.55 629.39 779.64 627.78 770.54 621.12 764.37 614.86 757.98 607.19 751.4 598.42 744.81 589.34 738.03 579.88 731.08 570.46 724.14 561.9 717.19 554.31 710.27 547.96 703.35 543.26 696.46 540.09 689.61 538.45 682.76 538.59 675.96 540.09 669.21 542.75 662.46 546.73 655.77 551.4 649.16 556.45 642.54 562.07 636 567.53 629.55 572.56 623.1 577.43 616.74 581.44 610.49 584.45 604.26 586.79 598.14 587.92 592.17 587.83 586.22 586.87 580.42 584.69 574.81 581.38 569.24 577.27 563.86 572.18 558.71 566.25 553.62 559.71 548.78 552.53 544.21 544.88 539.73 536.85 535.55 528.52 531.69 520.03 527.95 511.36 524.56 502.65 521.54 494.01 518.66 485.32 516.16 476.76 514.09 468.41 512.16 460.07 510.67 451.96 509.61 444.12 508.72 436.3 508.27 428.76 508.28 421.51 508.44 414.29 509.06 407.34 510.14 400.71 511.33 394.07 512.95 387.88 514.94 382.12 518.21 373.66 526.43 358.69 531.25 352.09 536.29 345.71 547.37 334.18 553.32 328.83 559.32 323.3 571.88 311.99 578.43 305.91 582.73 301.4 587.16 296.7 591.71 291.74 596.16 286.32 600.74 280.62 605.45 274.63 610.06 268.21 614.82 261.54 619.71 254.67 624.53 247.52 629.5 240.31 634.62 233.15 639.68 225.99 644.9 219.1 650.29 212.61 655.63 206.49 661.15 201.03 666.85 196.38 672.51 192.42 678.36 189.47 684.41 187.62 690.43 186.64 696.65 186.83 703.06 188.19 709.47 190.33 716.09 193.51 722.9 197.63" stroke-dasharray="0 0" transform="rotate(10.214285714285715, 711, 400)" opacity="0.49"></path><path d="M727.11 209.28C733.57 213.67 740.05 218.54 746.54 223.71 753.04 228.8 759.54 233.91 766.04 238.91 772.54 243.45 779.03 247.68 785.47 251.53 791.91 254.71 798.3 257.47 804.6 259.79 817.14 262.39 829.23 263.77 840.56 264.52 851.57 263.9 861.55 263.93 870.17 265.14 878.13 266.55 884.43 269.85 888.8 275.03 892.3 281 893.76 288.76 893.12 297.93 892 305.28 887.32 321.29 883.94 329.75 881.58 335.48 878.94 341.28 876.06 347.1 873.34 352.95 870.47 358.79 867.5 364.6 864.8 370.41 862.15 376.05 859.57 381.52 856.26 389.65 850.73 405.29 848.48 412.96 847.35 418.16 846.27 423.39 845.21 428.69 843.9 439.91 842.36 452 840.34 465.38 838.78 480.25 836.29 496.89 832.73 515.13 829.14 534.36 824.24 554.21 818.01 573.36 811.58 590.71 803.82 604.76 794.84 613.77 787.86 616.91 772.48 613 764.15 606.07 758.5 599.98 752.62 592.73 746.54 584.55 740.45 576.18 734.17 567.48 727.71 558.81 721.24 550.88 714.76 543.76 708.28 537.67 701.81 532.98 695.34 529.56 688.89 527.45 682.46 526.88 676.04 527.5 669.68 529.18 663.31 532.08 657 535.68 650.74 539.74 638.26 549.62 626.04 558.75 614.25 565.57 602.54 570.79 591.31 571.97 580.76 569.09 570.41 563.58 560.85 554.57 552.32 543 544.15 529.86 537.14 515.35 531.51 500.33 528.89 492.65 526.63 484.97 524.76 477.39 523.04 469.77 521.71 462.27 520.79 454.97 520.02 447.66 519.67 440.55 519.75 433.68 519.96 426.82 520.59 420.19 521.66 413.82 522.84 407.45 524.41 401.47 526.33 395.88 529.49 387.64 537.38 372.8 542.01 366.08 545.18 361.62 548.56 357.38 552.15 353.33 559.18 344.81 566.93 336.68 575.23 328.57 583.22 319.28 591.73 309.43 600.69 298.77 609.31 286.64 618.44 273.63 628.03 260.07 637.36 245.95 647.25 232.33 657.7 220.16 662.86 214.65 668.18 209.81 673.65 205.76 679.09 202.39 684.71 199.96 690.48 198.56 696.24 197.95 702.18 198.4 708.28 199.91 714.38 202.12 720.66 205.27 727.11 209.28" stroke-dasharray="0 0" transform="rotate(11, 711, 400)" opacity="0.53"></path><path d="M730.61 220.93C742.76 229.58 754.93 239.51 766.97 249.6 779.01 258.23 790.88 265.71 802.37 271.73 813.75 275.31 824.6 277.69 834.65 279.31 844.39 279.4 853.1 279.75 860.5 280.83 869.98 282.86 879.55 295.17 879.28 305.5 877.98 313.27 875.1 322.18 870.81 331.92 866.64 341.8 861.6 352.25 855.97 363.07 851.29 373.89 846.71 384.56 842.41 395.13 839.35 405.89 836.5 416.91 833.81 428.41 832.07 440.6 830.13 453.82 827.8 468.24 825.94 483.7 823.31 500.48 819.79 518.22 816.33 536.23 811.75 554.1 806.03 570.62 800.18 585.03 793.14 596 784.99 602.21 776.71 604.05 767.37 600.26 757.09 590.96 746.75 578.71 735.54 563.45 723.59 547.16 711.64 533.41 699.57 522.96 687.54 516.71 675.53 515.67 663.59 518.4 651.87 523.71 640.2 531.76 628.77 539.72 617.76 546.26 606.85 552.08 596.41 554.79 586.63 554.16 577.07 551.52 568.28 545.67 560.45 537.22 552.99 527.32 546.61 515.71 541.53 503.13 536.93 490 533.7 476.58 532.01 463.37 530.84 450.09 531.2 437.25 533.19 425.12 535.59 412.99 539.38 402.06 544.33 392.22 549.42 382.19 555.5 372.96 562.38 364.3 569.15 355.08 576.61 345.97 584.6 336.69 592.35 326.4 600.61 315.53 609.29 303.97 617.7 291.36 626.57 278.18 635.86 264.82 644.92 251.38 654.49 238.76 664.54 227.8 674.45 218.58 684.92 212.3 695.94 209.64 706.89 209.78 718.47 213.64 730.61 220.93" stroke-dasharray="0 0" transform="rotate(11.785714285714285, 711, 400)" opacity="0.56"></path><path d="M733.25 232.58C744.59 240.84 755.87 250.34 766.94 260.12 777.99 268.75 788.78 276.53 799.13 283.12 809.35 287.6 818.99 290.98 827.82 293.53 836.35 294.53 843.89 295.49 850.19 296.84 858.22 298.59 865.96 308.12 865.44 316.4 864.21 322.58 861.6 329.98 857.74 338.4 854.04 346.9 849.54 356.26 844.44 366.37 840.15 376.48 835.84 386.9 831.7 397.61 828.58 408.5 825.58 419.98 822.65 432.15 820.56 444.83 818.28 458.53 815.67 473.21 813.52 488.47 810.74 504.6 807.21 521.07 803.81 537.24 799.47 552.71 794.14 566.4 788.76 577.86 782.34 585.96 774.92 589.71 767.41 589.78 758.93 585.07 749.56 575.8 740.14 564.3 729.9 550.33 718.92 535.51 707.95 522.84 696.81 512.81 685.68 506.21 674.59 504 663.53 505.03 652.66 508.47 641.86 514.61 631.29 521.14 621.11 526.94 611.05 532.7 601.45 536.21 592.49 537.09 583.75 536.59 575.73 533.29 568.64 527.55 561.89 520.58 556.15 511.76 551.62 501.65 547.52 490.97 544.69 479.6 543.27 467.98 542.31 456.26 542.76 444.56 544.72 433.14 547.04 421.72 550.65 411.07 555.34 401.14 560.17 391.05 565.94 381.41 572.47 372.04 578.93 362.2 586.06 352.25 593.71 342.03 601.17 331.04 609.13 319.51 617.49 307.5 625.62 294.83 634.19 281.9 643.14 269.14 651.9 256.67 661.1 245.26 670.71 235.64 680.21 227.76 690.2 222.66 700.62 220.88 711.01 221.54 721.9 225.53 733.25 232.58" stroke-dasharray="0 0" transform="rotate(12.571428571428571, 711, 400)" opacity="0.59"></path><path d="M734.9 244.24C745.41 252.07 755.76 261.08 765.84 270.46 775.89 278.99 785.61 286.93 794.83 293.94 803.93 299.19 812.42 303.48 820.09 306.97 830.74 309.87 846.05 314.78 850.17 318.5 852.29 323.06 849.34 338.2 844.75 348.72 841.49 356.13 837.49 364.59 832.91 374.06 829 383.53 824.99 393.63 821.02 404.28 817.91 415.07 814.81 426.62 811.73 438.91 809.37 451.52 806.81 465.01 803.97 479.18 801.56 493.55 798.63 508.32 795.08 522.92 791.69 536.85 787.52 549.67 782.52 560.48 777.52 569.16 771.61 574.67 764.84 576.33 758 574.99 750.3 569.66 741.79 560.62 733.24 549.94 723.91 537.27 713.91 523.85 703.89 512.25 693.71 502.73 683.52 495.94 673.36 492.79 663.22 492.36 653.26 494.07 643.37 498.34 633.7 503.27 624.41 507.98 615.24 513.15 606.51 516.8 598.4 518.48 590.49 519.36 583.28 517.93 576.92 514.33 570.88 509.8 565.78 503.42 561.79 495.6 558.18 487.26 555.73 477.93 554.57 467.97 553.81 457.88 554.34 447.43 556.25 436.82 558.48 426.21 561.89 415.94 566.3 406.01 570.85 395.97 576.28 386.05 582.43 376.16 588.54 365.91 595.3 355.43 602.56 344.64 609.68 333.34 617.28 321.62 625.25 309.62 633.06 297.33 641.27 285.06 649.82 273.26 658.22 262 667.01 251.96 676.14 243.75 685.19 237.22 694.64 233.25 704.44 232.27 714.21 233.4 724.39 237.46 734.9 244.24" stroke-dasharray="0 0" transform="rotate(13.357142857142856, 711, 400)" opacity="0.63"></path><path d="M735.49 255.89C745.14 263.25 754.56 271.73 763.64 280.65 772.7 288.95 781.36 296.9 789.49 304.17 797.52 310.02 804.91 315.08 811.52 319.43 820.67 323.8 833.55 330.74 836.89 334.74 838.58 339.06 835.85 352.52 831.83 361.93 828.99 368.55 825.47 376.28 821.38 385.14 817.85 394.01 814.14 403.65 810.39 413.97 807.33 424.37 804.21 435.56 801.04 447.4 798.48 459.38 795.72 472.02 792.71 485.01 790.09 497.9 787.03 510.79 783.47 523.13 780.08 534.59 776.03 544.71 771.3 552.77 766.61 558.9 761.15 562.18 754.94 562.14 748.71 559.75 741.71 554.09 734 545.44 726.26 535.65 717.82 524.25 708.76 512.2 699.69 501.66 690.46 492.7 681.22 485.89 672.02 482.02 662.83 480.37 653.81 480.56 644.86 483.06 636.13 486.36 627.75 489.77 619.5 493.95 611.68 497.19 604.42 499.06 597.36 500.59 590.95 500.32 585.33 498.22 579.99 495.51 575.52 491.1 572.05 485.2 568.92 478.9 566.83 471.44 565.92 463.07 565.34 454.57 565.94 445.39 567.77 435.69 569.9 425.98 573.09 416.23 577.21 406.48 581.45 396.67 586.52 386.73 592.25 376.64 597.99 366.33 604.33 355.71 611.14 344.82 617.87 333.66 625.05 322.22 632.59 310.71 640.01 299.22 647.79 287.98 655.88 277.41 663.86 267.55 672.18 258.99 680.78 252.22 689.31 246.99 698.18 244.09 707.31 243.83 716.42 245.36 725.84 249.43 735.49 255.89" stroke-dasharray="0 0" transform="rotate(14.142857142857144, 711, 400)" opacity="0.66"></path><path d="M735.01 267.54C743.77 274.4 752.24 282.29 760.34 290.66 768.41 298.62 776.05 306.43 783.15 313.78 790.16 320.04 796.55 325.7 802.19 330.77 809.99 336.5 820.78 345.79 823.5 350.47 824.87 355.1 822.45 367.97 818.98 376.68 816.54 382.77 813.47 389.91 809.86 398.17 806.69 406.43 803.29 415.46 799.78 425.13 796.82 434.85 793.74 445.24 790.57 456.11 787.89 467 785.01 478.25 781.9 489.56 779.12 500.59 775.97 511.28 772.41 521.16 769.03 530.13 765.1 537.66 760.61 543.21 756.18 547.13 751.12 548.57 745.43 547.23 739.73 544.12 733.38 538.38 726.42 530.28 719.44 521.43 711.85 511.27 703.71 500.55 695.57 491.05 687.29 482.73 679.01 476.03 670.76 471.67 662.54 469.05 654.48 467.96 646.49 468.86 638.71 470.57 631.27 472.6 623.95 475.55 617.02 477.99 610.63 479.54 601.61 481.23 587.32 477.07 582.42 471.15 579.74 466.47 578.01 460.57 577.31 453.62 576.91 446.57 577.55 438.62 579.3 429.88 581.3 421.15 584.27 412.07 588.07 402.76 591.99 393.43 596.66 383.78 601.96 373.89 607.27 363.9 613.15 353.6 619.48 343.1 625.76 332.53 632.47 321.83 639.5 311.26 646.46 300.9 653.76 290.97 661.32 281.86 668.81 273.52 676.6 266.47 684.6 261.12 692.57 257.13 700.79 255.21 709.21 255.58 717.62 257.42 726.25 261.45 735.01 267.54" stroke-dasharray="0 0" transform="rotate(14.928571428571429, 711, 400)" opacity="0.69"></path><path d="M733.46 279.19C741.32 285.52 748.85 292.77 755.98 300.52 763.09 308.03 769.76 315.54 775.89 322.79 781.95 329.24 787.42 335.27 792.2 340.86 798.81 347.72 807.83 359.32 810.05 364.85 811.19 370.12 809.14 383.15 806.2 391.44 804.13 397.18 801.49 403.83 798.33 411.44 795.52 419.05 792.44 427.31 789.2 436.07 786.4 444.83 783.42 454.08 780.31 463.59 777.59 473.01 774.66 482.54 771.52 491.86 768.67 500.81 765.49 509.21 761.97 516.66 756.71 525.85 744.03 533.95 736.47 531.71 731.26 528.19 725.52 522.6 719.26 515.17 713 507.27 706.22 498.34 698.98 488.9 691.74 480.43 684.4 472.8 677.07 466.36 669.77 461.71 662.51 458.39 655.42 456.27 648.39 455.8 641.57 456.08 635.06 456.76 625.65 459.07 609.29 461.89 602.68 461.11 597.05 459.03 589.96 448.66 588.76 440.55 588.51 434.72 589.18 427.9 590.83 420.17 592.69 412.44 595.41 404.2 598.88 395.58 602.46 386.97 606.72 377.97 611.54 368.69 616.4 359.41 621.78 349.86 627.58 340.2 633.36 330.63 639.54 321.06 646.02 311.76 652.45 302.81 659.2 294.4 666.17 286.86 673.1 280.09 680.27 274.54 687.63 270.53 694.96 267.68 702.49 266.62 710.15 267.51 717.8 269.58 725.6 273.51 733.46 279.19" stroke-dasharray="0 0" transform="rotate(15.714285714285715, 711, 400)" opacity="0.73"></path><path d="M730.92 290.84C737.86 296.6 744.47 303.17 750.67 310.24 756.85 317.18 762.59 324.25 767.83 331.21 773.01 337.62 777.65 343.79 781.67 349.64 787.23 357.29 794.76 370.77 796.6 377.12 797.58 383.11 795.94 396.64 793.49 404.64 791.77 410.12 789.53 416.3 786.8 423.21 784.34 430.12 781.59 437.45 778.65 445.09 776.03 452.72 773.22 460.58 770.24 468.48 767.56 476.26 764.67 483.9 761.58 491.15 757.15 501.11 747.06 515.52 741.24 518.79 735.13 518.98 720.89 509.4 712.73 500.12 707.15 493.2 701.15 485.45 694.78 477.25 688.41 469.8 681.99 462.9 675.6 456.84 669.23 452.12 662.93 448.34 656.79 445.48 647.76 443.45 631.16 442.9 623.88 443.08 612.1 441.92 601.15 431.97 600.27 425.22 600.14 420.35 600.82 414.54 602.36 407.82 604.07 401.1 606.53 393.82 609.65 386.13 612.86 378.46 616.69 370.4 621.02 362.1 625.4 353.85 630.24 345.42 635.47 336.98 640.7 328.71 646.29 320.57 652.16 312.78 658 305.4 664.13 298.6 670.45 292.66 676.75 287.41 683.25 283.29 689.9 280.51 696.53 278.67 703.31 278.34 710.17 279.64 717.03 281.85 723.98 285.61 730.92 290.84" stroke-dasharray="0 0" transform="rotate(16.5, 711, 400)" opacity="0.76"></path><path d="M727.5 302.49C739.56 313.05 750.24 325.85 759.12 339.07 767.84 350.92 774.55 362.28 778.87 372.81 782.93 381.7 784.59 390.68 783.75 400.22 782.96 409.16 780.09 419.66 775.27 431.94 771.26 444.21 766.13 457.2 760.34 469.8 755.45 481.83 749.63 492.28 742.99 499.44 736.81 504.44 729.38 504.64 720.78 499.29 712.26 491.77 702.35 479.98 691.3 465.6 680.25 453.47 669.17 443.16 658.72 435.55 648.42 431.81 638.96 429.51 631.03 427.37 623.48 426.78 617.72 424.35 614.33 419.23 611.51 414.17 611.22 405.93 613.88 394.45 617.09 382.97 622.83 369.55 630.4 355.35 638.16 341.51 647.56 327.51 657.96 314.84 668.36 303.67 679.72 295.25 691.48 291.11 703.24 289.84 715.44 293.58 727.5 302.49" stroke-dasharray="0 0" transform="rotate(17.285714285714285, 711, 400)" opacity="0.80"></path><path d="M723.36 314.14C733.59 323.37 742.55 334.59 749.91 346.42 757.16 357.5 762.7 368.51 766.25 378.95 769.66 388.31 771.12 397.65 770.51 407.07 770 416.08 767.74 425.89 763.74 436.49 760.33 447.09 755.82 457.51 750.61 466.91 746.04 475.84 740.59 482.87 734.46 486.89 728.68 489.43 721.9 488.12 714.26 482.62 706.7 475.91 698.1 465.97 688.69 453.95 679.28 443.55 669.99 434.12 661.33 426.43 652.78 421.46 645.02 417.53 638.61 413.95 630.17 410.08 623.04 394.99 625.41 381.8 628.23 372.19 633.19 361.17 639.7 349.74 646.39 338.68 654.51 327.83 663.48 318.4 672.5 310.24 682.34 304.53 692.48 302.36 702.65 302.27 713.12 306.16 723.36 314.14" stroke-dasharray="0 0" transform="rotate(18.07142857142857, 711, 400)" opacity="0.83"></path><path d="M718.66 325.79C727.1 333.62 734.42 343.14 740.38 353.32 746.29 363.19 750.79 373.25 753.69 382.98 756.52 392.11 757.8 401.17 757.43 410.02 757.15 418.62 755.43 427.44 752.22 436.27 749.4 445.1 745.55 453.08 741.02 459.7 734.46 468.15 718.32 471.97 708.7 465.83 702.16 460.13 694.87 452.05 687.07 442.3 679.26 433.65 671.68 425.36 664.72 418.04 657.83 412.52 651.67 407.62 646.65 403.07 640.05 397.53 634.79 382.52 636.94 371.53 639.34 363.68 643.5 355.06 648.93 346.44 654.52 338.13 661.29 330.3 668.79 323.87 676.34 318.37 684.58 314.94 693.04 314.3 701.52 315.05 710.22 318.85 718.66 325.79" stroke-dasharray="0 0" transform="rotate(18.857142857142858, 711, 400)" opacity="0.86"></path><path d="M713.63 337.44C720.3 343.81 726.06 351.52 730.74 359.85 735.39 368.11 738.94 376.71 741.26 385.15 743.57 393.33 744.68 401.44 744.51 409.18 744.42 416.82 743.16 424.3 740.69 431.31 736.89 441.22 725.96 453.92 719.2 455.55 714.71 455.53 709.62 453.35 704.12 449.02 698.68 444.5 692.73 438.24 686.5 430.65 680.26 423.75 674.32 416.81 668.95 410.32 663.63 404.88 658.94 399.72 655.2 394.82 650.27 388.38 646.6 373.91 648.47 364.98 650.43 358.78 653.77 352.42 658.11 346.4 662.56 340.57 667.96 335.42 673.94 331.51 679.97 328.19 686.54 326.52 693.28 326.93 700.05 328.18 706.96 331.66 713.63 337.44" stroke-dasharray="0 0" transform="rotate(19.642857142857142, 711, 400)" opacity="0.90"></path><path d="M708.48 349.09C718.36 359.02 725.52 372.48 729.07 385.82 732.64 398.89 732.86 411.9 729.16 422.25 726 432.59 719.87 438.06 712.41 437.84 705.29 436.97 696.38 430.32 687.01 419 677.63 409.2 669.55 398.6 664.26 389.13 659.22 381.12 657.34 372.29 659.99 363.02 663.11 353.74 670.17 345.76 679.01 341.44 688.01 338.34 698.6 340.51 708.48 349.09" stroke-dasharray="0 0" transform="rotate(20.42857142857143, 711, 400)" opacity="0.93"></path><path d="M703.44 360.74C716.45 374.43 722.53 396.77 717.63 410.28 713.67 423.77 701.12 422.29 688.58 407.35 676.03 395.04 667.99 378.31 671.52 365.88 675.89 353.45 690.42 349.47 703.44 360.74" stroke-dasharray="0 0" transform="rotate(21.214285714285715, 711, 400)" opacity="0.97"></path></g></svg>